<svg xmlns="http://www.w3.org/2000/svg" xmlns:xlink="http://www.w3.org/1999/xlink" width="562" zoomAndPan="magnify" viewBox="0 0 421.5 501.749985" height="669" preserveAspectRatio="xMidYMid meet" version="1.2"><defs><filter x="0%" y="0%" width="100%" filterUnits="objectBoundingBox" id="4ecb490287" height="100%"><feColorMatrix values="0 0 0 0 1 0 0 0 0 1 0 0 0 0 1 0 0 0 1 0" type="matrix" in="SourceGraphic"/></filter><clipPath id="e9a7f003e3"><rect x="0" width="132" y="0" height="178"/></clipPath><clipPath id="de6010e56d"><rect x="0" width="135" y="0" height="178"/></clipPath><clipPath id="cf88594349"><path d="M 0.6875 0.667969 L 155.367188 0.667969 L 155.367188 12.097656 L 0.6875 12.097656 Z M 0.6875 0.667969 "/></clipPath><clipPath id="9c0a0a132f"><rect x="0" width="156" y="0" height="13"/></clipPath><clipPath id="0b3957cde7"><path d="M 0.6875 0.511719 L 137.460938 0.511719 L 137.460938 11.941406 L 0.6875 11.941406 Z M 0.6875 0.511719 "/></clipPath><clipPath id="303ddfc4a9"><rect x="0" width="138" y="0" height="13"/></clipPath><clipPath id="306145cd58"><rect x="0" width="128" y="0" height="177"/></clipPath><clipPath id="b65833de2b"><rect x="0" width="112" y="0" height="177"/></clipPath></defs><g id="5845b5cf30"><g mask="url(#8357cde2fb)" transform="matrix(1,0,0,1,35,55)"><g clip-path="url(#e9a7f003e3)"><g style="fill:#fbfbf5;fill-opacity:1;"><g transform="translate(0.881102, 145.449079)"><path style="stroke:none" d="M 10.21875 -55.96875 C 10.21875 -48.195312 11.710938 -40.867188 14.703125 -33.984375 C 17.691406 -27.109375 21.726562 -21.128906 26.8125 -16.046875 C 31.894531 -10.972656 37.90625 -6.941406 44.84375 -3.953125 C 51.78125 -0.960938 59.195312 0.53125 67.09375 0.53125 C 77.613281 0.53125 87.03125 -1.890625 95.34375 -6.734375 C 103.65625 -11.578125 110.320312 -17.941406 115.34375 -25.828125 L 106.734375 -34.625 C 104.828125 -31.15625 102.46875 -28.015625 99.65625 -25.203125 C 96.84375 -22.390625 93.726562 -19.96875 90.3125 -17.9375 C 86.90625 -15.90625 83.226562 -14.320312 79.28125 -13.1875 C 75.34375 -12.050781 71.28125 -11.484375 67.09375 -11.484375 C 60.988281 -11.484375 55.21875 -12.675781 49.78125 -15.0625 C 44.34375 -17.457031 39.585938 -20.6875 35.515625 -24.75 C 31.453125 -28.820312 28.222656 -33.519531 25.828125 -38.84375 C 23.441406 -44.164062 22.25 -49.816406 22.25 -55.796875 C 22.25 -61.648438 23.441406 -67.296875 25.828125 -72.734375 C 28.222656 -78.179688 31.453125 -82.9375 35.515625 -87 C 39.585938 -91.070312 44.375 -94.332031 49.875 -96.78125 C 55.375 -99.226562 61.171875 -100.453125 67.265625 -100.453125 C 71.816406 -100.453125 76.210938 -99.765625 80.453125 -98.390625 C 84.703125 -97.015625 88.617188 -95.070312 92.203125 -92.5625 C 95.796875 -90.050781 98.992188 -87.117188 101.796875 -83.765625 C 104.609375 -80.421875 106.910156 -76.773438 108.703125 -72.828125 L 118.75 -79.296875 C 116.476562 -84.078125 113.578125 -88.5 110.046875 -92.5625 C 106.523438 -96.632812 102.550781 -100.164062 98.125 -103.15625 C 93.695312 -106.144531 88.851562 -108.445312 83.59375 -110.0625 C 78.332031 -111.675781 72.832031 -112.484375 67.09375 -112.484375 C 59.195312 -112.484375 51.78125 -110.988281 44.84375 -108 C 37.90625 -105.007812 31.894531 -100.972656 26.8125 -95.890625 C 21.726562 -90.804688 17.691406 -84.820312 14.703125 -77.9375 C 11.710938 -71.0625 10.21875 -63.738281 10.21875 -55.96875 Z M 10.21875 -55.96875 "/></g></g></g><mask id="8357cde2fb"><g filter="url(#4ecb490287)"><rect x="0" width="421.5" y="0" height="501.749985" style="fill:#000000;fill-opacity:0.43;stroke:none;"/></g></mask></g><g mask="url(#da81ef33b6)" transform="matrix(1,0,0,1,250,53)"><g clip-path="url(#de6010e56d)"><g style="fill:#fbfbf5;fill-opacity:1;"><g transform="translate(0.157247, 145.181342)"><path style="stroke:none" d="M 22.25 -55.796875 C 22.25 -61.648438 23.441406 -67.296875 25.828125 -72.734375 C 28.222656 -78.179688 31.453125 -82.9375 35.515625 -87 C 39.585938 -91.070312 44.375 -94.332031 49.875 -96.78125 C 55.375 -99.226562 61.171875 -100.453125 67.265625 -100.453125 C 73.367188 -100.453125 79.140625 -99.226562 84.578125 -96.78125 C 90.023438 -94.332031 94.78125 -91.070312 98.84375 -87 C 102.90625 -82.9375 106.132812 -78.179688 108.53125 -72.734375 C 110.925781 -67.296875 112.125 -61.648438 112.125 -55.796875 C 112.125 -51.484375 111.460938 -47.296875 110.140625 -43.234375 C 108.828125 -39.171875 107.035156 -35.375 104.765625 -31.84375 C 102.492188 -28.3125 99.742188 -25.140625 96.515625 -22.328125 C 93.285156 -19.523438 89.816406 -17.222656 86.109375 -15.421875 L 92.75 -5.375 C 97.40625 -7.65625 101.644531 -10.554688 105.46875 -14.078125 C 109.300781 -17.609375 112.59375 -21.554688 115.34375 -25.921875 C 118.09375 -30.285156 120.210938 -35.007812 121.703125 -40.09375 C 123.203125 -45.175781 123.953125 -50.46875 123.953125 -55.96875 C 123.953125 -63.738281 122.457031 -71.0625 119.46875 -77.9375 C 116.476562 -84.820312 112.441406 -90.804688 107.359375 -95.890625 C 102.273438 -100.972656 96.265625 -105.007812 89.328125 -108 C 82.398438 -110.988281 74.988281 -112.484375 67.09375 -112.484375 C 59.195312 -112.484375 51.78125 -110.988281 44.84375 -108 C 37.90625 -105.007812 31.894531 -100.972656 26.8125 -95.890625 C 21.726562 -90.804688 17.691406 -84.820312 14.703125 -77.9375 C 11.710938 -71.0625 10.21875 -63.738281 10.21875 -55.96875 C 10.21875 -50.582031 10.9375 -45.378906 12.375 -40.359375 C 13.8125 -35.335938 15.816406 -30.613281 18.390625 -26.1875 C 20.960938 -21.757812 24.097656 -17.78125 27.796875 -14.25 C 31.503906 -10.726562 35.632812 -7.769531 40.1875 -5.375 L 48.078125 -15.25 C 44.253906 -17.039062 40.753906 -19.367188 37.578125 -22.234375 C 34.410156 -25.109375 31.691406 -28.3125 29.421875 -31.84375 C 27.148438 -35.375 25.382812 -39.171875 24.125 -43.234375 C 22.875 -47.296875 22.25 -51.484375 22.25 -55.796875 Z M 22.25 -55.796875 "/></g></g></g><mask id="da81ef33b6"><g filter="url(#4ecb490287)"><rect x="0" width="421.5" y="0" height="501.749985" style="fill:#000000;fill-opacity:0.43;stroke:none;"/></g></mask></g><g mask="url(#2002a942d3)" transform="matrix(1,0,0,1,123,354)"><g clip-path="url(#9c0a0a132f)"><g clip-rule="nonzero" clip-path="url(#cf88594349)"><path style=" stroke:none;fill-rule:nonzero;fill:#ffffff;fill-opacity:1;" d="M 0.6875 0.667969 L 155.382812 0.667969 L 155.382812 12.097656 L 0.6875 12.097656 Z M 0.6875 0.667969 "/></g></g><mask id="2002a942d3"><g filter="url(#4ecb490287)"><rect x="0" width="421.5" y="0" height="501.749985" style="fill:#000000;fill-opacity:0.43;stroke:none;"/></g></mask></g><g mask="url(#c784c4474b)" transform="matrix(1,0,0,1,123,140)"><g clip-path="url(#303ddfc4a9)"><g clip-rule="nonzero" clip-path="url(#0b3957cde7)"><path style=" stroke:none;fill-rule:nonzero;fill:#ffffff;fill-opacity:1;" d="M 0.6875 0.511719 L 137.480469 0.511719 L 137.480469 11.941406 L 0.6875 11.941406 Z M 0.6875 0.511719 "/></g></g><mask id="c784c4474b"><g filter="url(#4ecb490287)"><rect x="0" width="421.5" y="0" height="501.749985" style="fill:#000000;fill-opacity:0.43;stroke:none;"/></g></mask></g><g mask="url(#179c50ae90)" transform="matrix(1,0,0,1,45,269)"><g clip-path="url(#306145cd58)"><g style="fill:#fbfbf5;fill-opacity:1;"><g transform="translate(0.893037, 144.893433)"><path style="stroke:none" d="M 25.109375 -11.484375 L 25.109375 -100.28125 L 59.375 -100.28125 C 65.476562 -100.28125 71.25 -99.050781 76.6875 -96.59375 C 82.132812 -94.144531 86.890625 -90.859375 90.953125 -86.734375 C 95.015625 -82.609375 98.238281 -77.820312 100.625 -72.375 C 103.019531 -66.9375 104.21875 -61.289062 104.21875 -55.4375 C 104.21875 -49.457031 102.898438 -43.832031 100.265625 -38.5625 C 97.640625 -33.300781 94.234375 -28.640625 90.046875 -24.578125 C 85.867188 -20.515625 81.054688 -17.316406 75.609375 -14.984375 C 70.171875 -12.648438 64.703125 -11.484375 59.203125 -11.484375 Z M 12.5625 0 L 59.5625 0 C 66.738281 0 73.703125 -1.429688 80.453125 -4.296875 C 87.210938 -7.171875 93.222656 -11.117188 98.484375 -16.140625 C 103.742188 -21.160156 107.988281 -27.050781 111.21875 -33.8125 C 114.445312 -40.570312 116.0625 -47.835938 116.0625 -55.609375 C 116.0625 -63.378906 114.566406 -70.671875 111.578125 -77.484375 C 108.585938 -84.304688 104.550781 -90.289062 99.46875 -95.4375 C 94.382812 -100.582031 88.375 -104.617188 81.4375 -107.546875 C 74.5 -110.472656 67.085938 -111.9375 59.203125 -111.9375 L 12.5625 -111.9375 Z M 12.5625 0 "/></g></g></g><mask id="179c50ae90"><g filter="url(#4ecb490287)"><rect x="0" width="421.5" y="0" height="501.749985" style="fill:#000000;fill-opacity:0.43;stroke:none;"/></g></mask></g><g mask="url(#13fcc93b49)" transform="matrix(1,0,0,1,265,269)"><g clip-path="url(#b65833de2b)"><g style="fill:#fbfbf5;fill-opacity:1;"><g transform="translate(0.997821, 144.882196)"><path style="stroke:none" d="M 96.328125 -58.484375 L 96.328125 -47.1875 L 42.6875 -47.1875 L 42.6875 -58.484375 Z M 12.5625 0 L 12.5625 -111.9375 L 97.765625 -111.9375 L 97.765625 -100.640625 L 25.109375 -100.640625 L 25.109375 -11.296875 L 97.765625 -11.296875 L 97.765625 0 Z M 12.5625 0 "/></g></g></g><mask id="13fcc93b49"><g filter="url(#4ecb490287)"><rect x="0" width="421.5" y="0" height="501.749985" style="fill:#000000;fill-opacity:0.43;stroke:none;"/></g></mask></g></g></svg>