<svg xmlns="http://www.w3.org/2000/svg" xmlns:xlink="http://www.w3.org/1999/xlink" width="1080" zoomAndPan="magnify" viewBox="0 0 810 809.999993" height="1080" preserveAspectRatio="xMidYMid meet" version="1.2"><defs><clipPath id="1a6a3ed4bc"><path d="M 353 294 L 590.507812 294 L 590.507812 531.929688 L 353 531.929688 Z M 353 294 "/></clipPath><clipPath id="c6ff994875"><path d="M 236.507812 238 L 475 238 L 475 474 L 236.507812 474 Z M 236.507812 238 "/></clipPath></defs><g id="97046bcc86"><path style=" stroke:none;fill-rule:nonzero;fill:#808285;fill-opacity:1;" d="M 355.292969 530.640625 C 355.285156 530.640625 355.273438 530.640625 355.265625 530.640625 C 349.585938 530.625 342.003906 522.710938 334.671875 515.050781 C 331.472656 511.710938 328.453125 508.558594 325.863281 506.382812 C 322.84375 503.84375 319.71875 502.160156 316.699219 500.535156 C 309.429688 496.621094 303.152344 493.242188 303.472656 479.96875 C 303.800781 466.335938 310.792969 451.960938 322.171875 441.507812 C 332.101562 432.386719 344.171875 427.539062 355.3125 428.214844 C 361.894531 428.613281 406.878906 473.589844 407.066406 479.964844 C 407.339844 489.222656 399.109375 493.941406 391.152344 498.511719 C 387.433594 500.644531 383.585938 502.851562 380.59375 505.507812 C 377.132812 508.574219 374.140625 512.851562 371.25 516.988281 C 366.34375 524.007812 361.703125 530.640625 355.292969 530.640625 Z M 353.25 429.574219 C 343.0625 429.574219 332.195312 434.234375 323.132812 442.558594 C 312.03125 452.753906 305.214844 466.75 304.894531 480.003906 C 304.59375 492.40625 310.234375 495.441406 317.375 499.285156 C 320.457031 500.945312 323.648438 502.664062 326.78125 505.296875 C 329.425781 507.519531 332.472656 510.703125 335.699219 514.070312 C 342.492188 521.167969 350.195312 529.207031 355.273438 529.222656 C 355.277344 529.222656 355.285156 529.222656 355.292969 529.222656 C 360.964844 529.222656 365.398438 522.882812 370.085938 516.171875 C 373.023438 511.96875 376.066406 507.621094 379.648438 504.441406 C 382.753906 501.691406 386.664062 499.449219 390.445312 497.277344 C 398.390625 492.71875 405.894531 488.414062 405.644531 480.007812 C 405.476562 474.246094 361.179688 429.992188 355.226562 429.632812 C 354.570312 429.597656 353.914062 429.574219 353.25 429.574219 Z M 355.667969 520.832031 C 355.648438 520.832031 355.628906 520.832031 355.609375 520.832031 C 348.164062 520.761719 335.707031 512.511719 327.300781 505.464844 C 318.351562 497.964844 308.707031 487.453125 308.464844 480.445312 C 308.070312 469.097656 314.546875 455.796875 325.363281 445.730469 C 334.960938 436.800781 346.007812 432.269531 355.6875 433.292969 C 360.632812 433.820312 372.746094 443.832031 382.554688 453.519531 C 392.171875 463.019531 402.53125 475.066406 402.765625 480.390625 C 402.964844 484.957031 397.597656 491.519531 393.054688 496.222656 C 382.035156 507.625 363.339844 520.828125 355.667969 520.832031 Z M 352.9375 434.570312 C 344.316406 434.570312 334.765625 438.914062 326.328125 446.765625 C 315.808594 456.5625 309.503906 469.445312 309.882812 480.394531 C 310.070312 485.785156 317.265625 495.199219 328.214844 504.375 C 338.878906 513.316406 349.890625 519.359375 355.621094 519.410156 C 355.636719 519.410156 355.652344 519.410156 355.667969 519.410156 C 362.242188 519.410156 380.21875 507.464844 392.035156 495.234375 C 398.179688 488.871094 401.484375 483.621094 401.347656 480.453125 C 400.972656 472.007812 364.585938 435.667969 355.539062 434.707031 C 354.683594 434.617188 353.8125 434.570312 352.9375 434.570312 Z M 356.976562 514.289062 C 356.777344 514.289062 356.578125 514.285156 356.382812 514.277344 C 342.71875 513.746094 314.90625 495.84375 313.90625 481.46875 C 313.257812 472.164062 317.816406 461.828125 326.410156 453.101562 C 335.390625 443.992188 347.203125 438.433594 356.449219 438.929688 C 367.980469 439.554688 398.414062 471.863281 398.917969 481.378906 C 399.121094 485.246094 396.164062 490.488281 390.585938 496.140625 C 381.675781 505.171875 366.820312 514.289062 356.976562 514.289062 Z M 355.257812 440.320312 C 346.558594 440.320312 335.769531 445.628906 327.425781 454.101562 C 319.113281 462.535156 314.703125 472.472656 315.324219 481.367188 C 316.261719 494.855469 343.539062 512.351562 356.4375 512.855469 C 365.867188 513.273438 380.699219 504.136719 389.574219 495.140625 C 394.789062 489.855469 397.679688 484.867188 397.5 481.453125 C 397.035156 472.6875 367.25 440.9375 356.375 440.347656 C 356.003906 440.328125 355.636719 440.320312 355.257812 440.320312 Z M 358.464844 510.355469 C 358.144531 510.355469 357.832031 510.347656 357.523438 510.332031 C 343.945312 509.683594 321.597656 497.15625 319.699219 482.949219 C 318.6875 475.378906 322.445312 466.484375 330.007812 458.539062 C 338.355469 449.769531 349.453125 444.316406 357.617188 445.011719 C 369.714844 446.019531 394.800781 471.105469 395.421875 482.816406 C 395.640625 486.972656 393.320312 491.613281 388.707031 496.246094 C 380.679688 504.304688 367.617188 510.355469 358.464844 510.355469 Z M 356.183594 446.375 C 348.570312 446.375 338.660156 451.511719 331.035156 459.519531 C 323.773438 467.148438 320.152344 475.621094 321.109375 482.761719 C 322.542969 493.488281 340.488281 508.09375 357.589844 508.917969 C 366.398438 509.335938 379.644531 503.332031 387.699219 495.242188 C 392.019531 490.902344 394.199219 486.632812 394 482.894531 C 393.421875 471.910156 368.859375 447.371094 357.496094 446.425781 C 357.070312 446.390625 356.628906 446.375 356.183594 446.375 Z M 359.515625 508.371094 C 359.320312 508.371094 359.128906 508.367188 358.933594 508.363281 C 352.609375 508.222656 344.617188 505.488281 338.078125 501.222656 C 330.660156 496.386719 326.277344 490.507812 325.734375 484.671875 C 325.050781 477.371094 328.808594 468.820312 335.777344 461.796875 C 342.859375 454.65625 351.535156 450.777344 359.011719 451.40625 C 371.746094 452.484375 391.269531 472 392.167969 484.554688 C 392.464844 488.71875 390.714844 492.921875 387.105469 496.714844 C 380.714844 503.425781 368.957031 508.371094 359.515625 508.371094 Z M 327.148438 484.535156 C 328.269531 496.542969 347.203125 506.683594 358.96875 506.941406 C 366.839844 507.144531 379.183594 502.96875 386.078125 495.730469 C 389.453125 492.1875 391.023438 488.460938 390.753906 484.652344 C 389.890625 472.597656 371.132812 453.851562 358.890625 452.816406 C 351.839844 452.222656 343.578125 455.949219 336.785156 462.792969 C 330.109375 469.523438 326.507812 477.652344 327.148438 484.535156 Z M 360.742188 507.714844 C 360.652344 507.714844 360.570312 507.714844 360.480469 507.714844 C 349.769531 507.609375 332.679688 498.484375 331.914062 486.582031 C 331.488281 479.910156 334.644531 472.484375 340.359375 466.722656 C 346.160156 460.867188 353.699219 457.597656 360.527344 457.976562 C 373.015625 458.660156 388.21875 473.847656 389.0625 486.488281 C 389.355469 490.847656 387.828125 494.828125 384.53125 498.316406 C 378.410156 504.796875 367.972656 507.714844 360.742188 507.714844 Z M 359.453125 459.367188 C 353.292969 459.367188 346.605469 462.4375 341.367188 467.722656 C 335.933594 473.199219 332.929688 480.21875 333.332031 486.488281 C 334.046875 497.644531 350.304688 506.195312 360.496094 506.292969 C 367.652344 506.390625 377.855469 503.3125 383.5 497.339844 C 386.515625 494.152344 387.910156 490.53125 387.644531 486.582031 C 386.855469 474.769531 372.117188 460.03125 360.449219 459.390625 C 360.121094 459.375 359.789062 459.367188 359.453125 459.367188 Z M 363.011719 507.746094 C 362.699219 507.746094 362.382812 507.742188 362.066406 507.742188 C 352.25 507.6875 339.089844 505.636719 338.144531 488.558594 C 337.820312 482.734375 340.023438 477 344.347656 472.414062 C 349.007812 467.472656 355.46875 464.625 362.070312 464.597656 C 362.101562 464.597656 362.132812 464.597656 362.164062 464.597656 C 368.523438 464.597656 374.496094 467.066406 378.996094 471.550781 C 383.523438 476.0625 386.011719 482.089844 386.003906 488.519531 C 386 495.027344 384.46875 499.703125 381.332031 502.820312 C 376.882812 507.234375 369.90625 507.746094 363.011719 507.746094 Z M 362.160156 466.019531 C 362.132812 466.019531 362.101562 466.019531 362.074219 466.019531 C 355.859375 466.042969 349.777344 468.730469 345.378906 473.390625 C 341.324219 477.6875 339.257812 483.046875 339.558594 488.480469 C 340.238281 500.734375 347.183594 506.234375 362.074219 506.320312 C 368.984375 506.355469 376.0625 506.046875 380.328125 501.8125 C 383.183594 498.976562 384.574219 494.628906 384.582031 488.519531 C 384.585938 482.46875 382.246094 476.800781 377.992188 472.558594 C 373.761719 468.339844 368.140625 466.019531 362.160156 466.019531 Z M 364.214844 507.808594 C 364.003906 507.808594 363.796875 507.804688 363.589844 507.804688 C 355.589844 507.730469 344.882812 505.851562 344.308594 490.457031 C 344.128906 485.617188 345.9375 480.949219 349.402344 477.320312 C 353.09375 473.453125 358.265625 471.203125 363.589844 471.152344 C 368.691406 471.148438 373.582031 473.070312 377.230469 476.691406 C 380.890625 480.320312 382.894531 485.199219 382.882812 490.429688 C 382.867188 496.421875 381.464844 500.714844 378.597656 503.546875 C 374.851562 507.246094 369.035156 507.808594 364.214844 507.808594 Z M 363.601562 472.570312 C 358.660156 472.621094 353.859375 474.707031 350.429688 478.300781 C 347.230469 481.648438 345.5625 485.949219 345.726562 490.402344 C 346.136719 501.34375 351.648438 506.273438 363.601562 506.382812 C 368.261719 506.417969 374.0625 506.027344 377.59375 502.539062 C 380.183594 499.984375 381.445312 496.023438 381.460938 490.429688 C 381.472656 485.582031 379.617188 481.058594 376.230469 477.699219 C 372.851562 474.347656 368.328125 472.566406 363.601562 472.570312 Z M 365.257812 507.253906 C 365.15625 507.253906 365.050781 507.253906 364.949219 507.253906 C 355.457031 507.144531 350.53125 502.0625 350.316406 492.152344 C 350.234375 488.382812 351.632812 484.804688 354.261719 482.085938 C 357.023438 479.226562 360.917969 477.554688 364.949219 477.5 C 368.855469 477.429688 372.539062 478.929688 375.3125 481.675781 C 378.09375 484.429688 379.613281 488.144531 379.601562 492.140625 C 379.582031 497.292969 378.273438 501.1875 375.710938 503.710938 C 373.320312 506.066406 369.804688 507.253906 365.257812 507.253906 Z M 365.148438 478.921875 C 365.089844 478.921875 365.027344 478.921875 364.96875 478.921875 C 361.3125 478.972656 357.78125 480.484375 355.285156 483.070312 C 352.921875 485.519531 351.660156 488.734375 351.734375 492.125 C 351.933594 501.25 356.261719 505.734375 364.964844 505.832031 C 369.300781 505.90625 372.550781 504.828125 374.710938 502.699219 C 376.996094 500.453125 378.160156 496.898438 378.179688 492.136719 C 378.191406 488.527344 376.816406 485.171875 374.308594 482.6875 C 371.855469 480.257812 368.605469 478.921875 365.148438 478.921875 Z M 366.183594 505.449219 C 366.136719 505.449219 366.09375 505.449219 366.050781 505.449219 C 361.277344 505.390625 356.148438 502.230469 356.058594 493.527344 C 356.003906 488.089844 360.484375 483.601562 366.046875 483.523438 C 368.765625 483.507812 371.230469 484.5 373.125 486.375 C 375.027344 488.253906 376.066406 490.792969 376.054688 493.519531 C 376.039062 497.542969 374.90625 500.773438 372.777344 502.867188 C 371.0625 504.558594 368.785156 505.449219 366.183594 505.449219 Z M 366.066406 484.945312 C 361.285156 485.011719 357.433594 488.855469 357.480469 493.511719 C 357.542969 500.03125 360.753906 503.964844 366.066406 504.027344 C 368.296875 504.011719 370.3125 503.300781 371.78125 501.855469 C 373.632812 500.035156 374.621094 497.152344 374.632812 493.515625 C 374.644531 491.171875 373.753906 488.992188 372.125 487.382812 C 370.503906 485.777344 368.351562 484.949219 366.066406 484.945312 Z M 366.824219 501.742188 C 366.8125 501.742188 366.800781 501.742188 366.789062 501.742188 C 363.699219 501.714844 361.453125 498.644531 361.4375 494.441406 C 361.429688 491.519531 363.828125 489.117188 366.785156 489.089844 C 368.203125 489.066406 369.566406 489.621094 370.578125 490.628906 C 371.59375 491.636719 372.152344 492.988281 372.148438 494.441406 C 372.140625 496.921875 371.390625 499.023438 370.035156 500.359375 C 369.121094 501.265625 368.011719 501.742188 366.824219 501.742188 Z M 366.839844 490.507812 C 366.828125 490.507812 366.8125 490.507812 366.800781 490.507812 C 364.621094 490.53125 362.851562 492.292969 362.859375 494.4375 C 362.867188 497.828125 364.523438 500.300781 366.796875 500.320312 C 366.804688 500.320312 366.816406 500.320312 366.820312 500.320312 C 367.625 500.320312 368.390625 499.984375 369.03125 499.351562 C 370.117188 498.277344 370.71875 496.535156 370.722656 494.4375 C 370.726562 493.371094 370.320312 492.375 369.574219 491.636719 C 368.84375 490.910156 367.875 490.507812 366.839844 490.507812 Z M 366.839844 490.507812 "/><g clip-rule="nonzero" clip-path="url(#1a6a3ed4bc)"><path style=" stroke:none;fill-rule:nonzero;fill:#bcbec0;fill-opacity:1;" d="M 556.5 374.808594 C 546.832031 368.871094 536.835938 362.734375 530.886719 355.53125 C 525.851562 349.433594 521.671875 341.714844 517.246094 333.542969 C 506.8125 314.269531 496.027344 294.34375 472.734375 294.34375 C 472.722656 294.34375 472.710938 294.34375 472.699219 294.34375 C 452.082031 294.363281 440.585938 314.128906 429.46875 333.242188 C 423.769531 343.042969 418.382812 352.300781 411.996094 358.53125 C 406.261719 364.121094 398.039062 368.746094 389.332031 373.644531 C 371.835938 383.484375 353.742188 393.664062 353.949219 413.050781 C 354.265625 442.609375 367.496094 472.644531 390.253906 495.460938 C 413.070312 518.335938 443.121094 531.558594 472.699219 531.746094 C 472.894531 531.746094 473.085938 531.746094 473.28125 531.746094 C 509.335938 531.746094 518.933594 510.550781 531.066406 483.757812 L 532.773438 479.988281 C 537.964844 468.59375 549.890625 459.238281 561.425781 450.1875 C 576.171875 438.617188 590.097656 427.691406 590.3125 413.054688 C 590.558594 395.714844 573.246094 385.085938 556.5 374.808594 Z M 560.542969 449.070312 C 548.875 458.222656 536.8125 467.6875 531.476562 479.398438 L 529.765625 483.171875 C 517.386719 510.523438 508.425781 530.324219 473.296875 530.324219 C 473.101562 530.324219 472.902344 530.324219 472.703125 530.324219 C 443.5 530.140625 413.8125 517.066406 391.257812 494.457031 C 368.761719 471.902344 355.679688 442.226562 355.367188 413.035156 C 355.171875 394.488281 372.890625 384.519531 390.027344 374.878906 C 398.816406 369.9375 407.117188 365.269531 412.984375 359.546875 C 419.511719 353.183594 424.945312 343.84375 430.695312 333.957031 C 441.613281 315.1875 452.898438 295.78125 472.699219 295.765625 C 472.710938 295.765625 472.71875 295.765625 472.730469 295.765625 C 495.175781 295.765625 505.761719 315.316406 515.996094 334.21875 C 520.453125 342.453125 524.667969 350.234375 529.789062 356.4375 C 535.890625 363.824219 545.992188 370.019531 555.757812 376.019531 C 572.160156 386.089844 589.125 396.503906 588.886719 413.035156 C 588.683594 426.992188 575.015625 437.714844 560.542969 449.070312 Z M 528.039062 356.289062 C 524.816406 351.851562 521.808594 346.84375 518.628906 341.539062 C 508.167969 324.109375 496.324219 304.367188 474.015625 304.367188 C 473.867188 304.367188 473.71875 304.367188 473.570312 304.367188 C 454.757812 304.585938 442.390625 322.910156 431.476562 339.074219 C 426.453125 346.519531 421.707031 353.554688 416.621094 358.617188 C 411.765625 363.449219 405.136719 367.90625 398.117188 372.625 C 382.160156 383.351562 365.660156 394.441406 365.558594 412.339844 C 365.402344 438.898438 378.777344 467.71875 401.339844 489.441406 C 421.890625 509.226562 446.894531 520.382812 470.4375 520.382812 C 471.496094 520.382812 472.558594 520.359375 473.609375 520.316406 C 501.761719 519.097656 512.546875 499.578125 525.035156 476.972656 C 525.800781 475.585938 526.574219 474.183594 527.359375 472.773438 C 531.058594 466.132812 537.292969 459.035156 543.894531 451.515625 C 555.347656 438.472656 567.191406 424.984375 566.945312 412.328125 C 566.667969 398.027344 554.144531 384.890625 542.035156 372.183594 C 536.738281 366.628906 531.734375 361.378906 528.039062 356.289062 Z M 542.828125 450.578125 C 536.179688 458.15625 529.894531 465.3125 526.121094 472.082031 C 525.335938 473.492188 524.558594 474.898438 523.792969 476.289062 C 511.511719 498.515625 500.90625 517.714844 473.550781 518.894531 C 449.484375 519.949219 423.523438 508.824219 402.324219 488.417969 C 380.042969 466.960938 366.828125 438.523438 366.980469 412.34375 C 367.078125 395.199219 383.261719 384.320312 398.910156 373.800781 C 405.988281 369.046875 412.675781 364.550781 417.625 359.621094 C 422.808594 354.464844 427.589844 347.375 432.65625 339.867188 C 443.898438 323.21875 455.519531 306 473.589844 305.789062 C 473.738281 305.785156 473.882812 305.785156 474.027344 305.785156 C 495.519531 305.785156 506.648438 324.332031 517.410156 342.269531 C 520.609375 347.597656 523.628906 352.636719 526.886719 357.125 C 530.640625 362.289062 535.675781 367.570312 541.007812 373.164062 C 552.929688 385.671875 565.257812 398.605469 565.527344 412.355469 C 565.761719 424.460938 554.105469 437.738281 542.828125 450.578125 Z M 526.316406 356.917969 C 524.957031 354.863281 523.578125 352.699219 522.164062 350.480469 C 511.605469 333.90625 498.488281 313.316406 476.402344 313.316406 C 476.199219 313.316406 475.996094 313.320312 475.792969 313.320312 C 458.335938 313.621094 445.675781 329.886719 434.511719 344.234375 C 430.304688 349.640625 426.328125 354.75 422.332031 358.761719 C 418.136719 362.96875 413.007812 366.921875 407.582031 371.105469 C 393.503906 381.960938 378.949219 393.183594 378.511719 410.550781 C 377.925781 434.03125 390.238281 460.097656 411.445312 480.28125 C 429.878906 497.824219 452.121094 507.960938 471.777344 507.960938 C 473.148438 507.960938 474.511719 507.914062 475.855469 507.8125 C 498.515625 506.132812 511.167969 487.757812 524.226562 465.722656 C 526.253906 462.296875 528.734375 458.476562 531.359375 454.433594 C 540.867188 439.796875 551.640625 423.207031 551.292969 410.546875 C 550.835938 393.980469 537.613281 373.996094 526.992188 357.9375 Z M 530.167969 453.664062 C 527.535156 457.71875 525.050781 461.546875 523.003906 465 C 510.152344 486.6875 497.726562 504.769531 475.75 506.398438 C 455.515625 507.90625 431.859375 497.75 412.425781 479.253906 C 391.503906 459.34375 379.359375 433.675781 379.933594 410.589844 C 380.351562 393.898438 394.636719 382.882812 408.449219 372.234375 C 413.914062 368.019531 419.078125 364.042969 423.335938 359.765625 C 427.398438 355.691406 431.398438 350.550781 435.632812 345.109375 C 446.601562 331.011719 459.035156 315.03125 475.816406 314.746094 C 476.019531 314.742188 476.21875 314.738281 476.417969 314.738281 C 497.707031 314.738281 510.058594 334.125 520.964844 351.246094 C 522.382812 353.46875 523.765625 355.640625 525.132812 357.703125 L 525.808594 358.722656 C 536.328125 374.628906 549.425781 394.425781 549.871094 410.589844 C 550.207031 422.804688 539.097656 439.914062 530.167969 453.664062 Z M 479.054688 321.449219 C 462.410156 321.855469 450.152344 335.539062 438.296875 348.773438 C 435.089844 352.355469 432.058594 355.734375 428.976562 358.8125 C 426.035156 361.753906 422.691406 364.679688 419.15625 367.777344 C 406.710938 378.671875 392.609375 391.019531 392.511719 407.964844 C 392.390625 429.585938 403.480469 453.015625 422.183594 470.628906 C 438.5 486 457.765625 494.601562 475.597656 494.601562 C 476.777344 494.601562 477.953125 494.566406 479.117188 494.488281 C 491.742188 493.667969 506.945312 480.960938 520.832031 459.625 C 532.628906 441.507812 541.261719 420.277344 541.832031 408 C 542.675781 389.78125 526.421875 355.796875 507.730469 336.703125 C 497.75 326.507812 487.796875 321.226562 479.054688 321.449219 Z M 531.691406 382.054688 C 532.171875 383.953125 532.578125 385.902344 532.917969 387.894531 C 532.96875 388.863281 533 389.851562 532.988281 390.882812 C 532.722656 408.855469 518.851562 422.363281 500.691406 422.363281 C 500.632812 422.363281 500.574219 422.363281 500.515625 422.363281 C 483.21875 422.277344 469.09375 408.160156 469.03125 390.890625 C 469 382.53125 473.011719 373.796875 479.769531 367.523438 C 485.417969 362.277344 492.265625 359.359375 498.804688 359.359375 C 499.359375 359.359375 499.910156 359.378906 500.460938 359.421875 C 509.121094 360.089844 521.875 362.949219 528.550781 373.34375 C 529.734375 376.257812 530.785156 379.179688 531.691406 382.054688 Z M 526.871094 365.5625 C 526.8125 365.496094 526.753906 365.429688 526.699219 365.359375 C 526.558594 365.125 526.40625 364.894531 526.261719 364.660156 C 525.871094 363.878906 525.449219 363.117188 525.039062 362.34375 C 525.664062 363.414062 526.273438 364.484375 526.871094 365.5625 Z M 525.085938 365.691406 C 525.496094 366.523438 525.894531 367.355469 526.28125 368.191406 C 521.234375 363.011719 513.210938 358.980469 500.566406 358.003906 C 493.148438 357.425781 485.21875 360.519531 478.796875 366.480469 C 471.761719 373.019531 467.578125 382.144531 467.609375 390.894531 C 467.671875 408.941406 482.433594 423.695312 500.507812 423.78125 C 500.570312 423.78125 500.628906 423.78125 500.691406 423.78125 C 517.6875 423.777344 531.078125 412.4375 533.867188 396.558594 C 533.882812 396.824219 533.902344 397.085938 533.914062 397.351562 C 531.617188 417.035156 517.691406 436.25 496.707031 436.246094 C 496.65625 436.246094 496.597656 436.246094 496.546875 436.246094 C 485.730469 436.195312 474.785156 431.324219 466.519531 422.878906 C 458.597656 414.792969 454.15625 404.289062 454.328125 394.0625 C 454.503906 383.457031 461.027344 370.878906 470.945312 362.023438 C 478.433594 355.339844 486.609375 351.746094 494.222656 351.746094 C 494.976562 351.746094 495.730469 351.78125 496.472656 351.855469 C 507.226562 352.886719 517.851562 357.460938 525.085938 365.691406 Z M 521.105469 359.863281 C 514.660156 354.707031 506.335938 351.375 496.613281 350.4375 C 487.988281 349.609375 478.535156 353.347656 470.003906 360.964844 C 459.804688 370.070312 453.09375 383.054688 452.910156 394.039062 C 452.730469 404.640625 457.320312 415.511719 465.503906 423.871094 C 474.035156 432.585938 485.347656 437.613281 496.542969 437.664062 C 496.597656 437.664062 496.652344 437.664062 496.710938 437.664062 C 514.605469 437.664062 527.554688 424.285156 532.929688 408.246094 C 528.617188 428.71875 512.136719 449.644531 492.085938 450.5 C 479.3125 451.054688 466.175781 445.792969 456.066406 436.085938 C 445.296875 425.746094 439.136719 411.710938 439.171875 397.578125 C 439.199219 385.566406 446.78125 371.058594 458.957031 359.710938 C 469.21875 350.15625 480.847656 344.601562 490.449219 344.601562 C 490.996094 344.601562 491.535156 344.621094 492.070312 344.65625 C 504.410156 345.496094 514.132812 351.375 521.105469 359.863281 Z M 492.164062 343.238281 C 481.875 342.535156 469.113281 348.308594 457.988281 358.671875 C 445.535156 370.277344 437.777344 385.183594 437.75 397.578125 C 437.71875 412.09375 444.03125 426.503906 455.082031 437.113281 C 464.976562 446.613281 477.707031 451.960938 490.273438 451.960938 C 490.898438 451.960938 491.523438 451.945312 492.148438 451.921875 C 509.21875 451.191406 523.777344 436.445312 530.859375 419.5 C 528.511719 426.972656 524.949219 434.582031 520.46875 441.394531 C 511.007812 455.785156 499.292969 464.125 487.480469 464.882812 C 472.960938 465.808594 457.492188 459.585938 445.027344 447.796875 C 431.617188 435.117188 423.703125 417.710938 423.851562 401.242188 C 423.96875 388.207031 433.992188 370.558594 449.394531 356.28125 C 462.765625 343.878906 477 336.878906 487.480469 337.585938 C 497.550781 338.25 507.914062 343.796875 516.304688 352.941406 C 509.832031 347.480469 501.765625 343.890625 492.164062 343.238281 Z M 487.574219 336.167969 C 476.691406 335.453125 462.082031 342.578125 448.429688 355.238281 C 432.757812 369.769531 422.550781 387.824219 422.429688 401.226562 C 422.28125 418.085938 430.363281 435.882812 444.050781 448.832031 C 455.960938 460.097656 470.589844 466.394531 484.617188 466.394531 C 485.605469 466.394531 486.59375 466.363281 487.574219 466.300781 C 499.839844 465.515625 511.945312 456.945312 521.65625 442.175781 C 530.113281 429.320312 535.390625 413.632812 535.425781 401.238281 C 535.429688 400.867188 535.414062 400.492188 535.410156 400.117188 C 535.410156 400.046875 535.417969 399.980469 535.421875 399.914062 C 535.566406 401.605469 535.65625 403.25 535.625 404.765625 C 535.410156 416.683594 528.785156 434.84375 519.144531 449.957031 C 508.019531 467.390625 494.851562 478.035156 483.011719 479.15625 C 467.582031 480.613281 451.171875 474.335938 436.785156 461.46875 C 419.773438 446.253906 409 424.527344 408.671875 404.769531 C 408.46875 392.449219 419.0625 374.363281 436.324219 357.570312 C 453.019531 341.324219 471.378906 330.660156 483.097656 330.40625 C 483.296875 330.402344 483.5 330.398438 483.699219 330.398438 C 492.421875 330.398438 500.960938 334.503906 509.097656 342.609375 C 511.195312 344.695312 513.191406 347.003906 515.085938 349.464844 C 507.132812 341.46875 497.644531 336.832031 487.574219 336.167969 Z M 510.097656 341.597656 C 501.492188 333.023438 492.371094 328.800781 483.0625 328.984375 C 457.871094 329.527344 406.78125 376.449219 407.25 404.789062 C 407.582031 424.933594 418.539062 447.054688 435.835938 462.523438 C 449.121094 474.40625 464.136719 480.78125 478.59375 480.78125 C 480.117188 480.78125 481.636719 480.710938 483.148438 480.570312 C 511.402344 477.894531 536.621094 428.101562 537.050781 404.792969 C 537.121094 400.933594 536.632812 396.457031 535.679688 391.667969 C 535.683594 388.332031 535.339844 385.128906 534.6875 382.085938 C 538.542969 391.859375 540.730469 401.054688 540.410156 407.9375 C 539.289062 432.195312 506.507812 491.28125 479.023438 493.074219 C 460.632812 494.253906 440.269531 485.714844 423.160156 469.597656 C 404.738281 452.246094 393.8125 429.210938 393.933594 407.976562 C 394.023438 391.667969 407.875 379.542969 420.089844 368.84375 C 423.648438 365.734375 427.003906 362.792969 429.980469 359.820312 C 433.089844 356.714844 436.132812 353.316406 439.351562 349.722656 C 451.007812 336.714844 463.054688 323.261719 479.085938 322.871094 C 479.246094 322.867188 479.410156 322.863281 479.570312 322.863281 C 487.832031 322.863281 497.203125 327.984375 506.710938 337.699219 C 508.628906 339.65625 510.519531 341.78125 512.367188 344.019531 C 511.621094 343.199219 510.875 342.375 510.097656 341.597656 Z M 503.730469 366.175781 C 497.34375 366.074219 491.476562 368.410156 487.269531 372.78125 C 483.253906 376.941406 481.222656 382.484375 481.546875 388.375 C 482.25 401.277344 491.339844 410.507812 503.246094 410.507812 C 503.410156 410.507812 503.570312 410.503906 503.730469 410.5 C 511.46875 410.339844 519.8125 406.6875 524.996094 401.195312 C 528.636719 397.335938 530.472656 392.882812 530.300781 388.3125 C 529.820312 375.523438 515.914062 366.382812 503.730469 366.175781 Z M 528.882812 388.363281 C 529.039062 392.542969 527.335938 396.640625 523.960938 400.21875 C 519.027344 405.449219 511.078125 408.925781 503.703125 409.078125 C 492.324219 409.324219 483.636719 400.578125 482.964844 388.296875 C 482.664062 382.804688 484.558594 377.640625 488.292969 373.765625 C 492.140625 369.777344 497.457031 367.59375 503.304688 367.59375 C 503.4375 367.59375 503.570312 367.59375 503.707031 367.59375 C 515.25 367.792969 528.429688 376.371094 528.882812 388.363281 Z M 494.421875 386.65625 C 494.675781 393.195312 499.511719 398.070312 505.695312 398.070312 C 505.753906 398.070312 505.8125 398.070312 505.875 398.066406 C 510.492188 397.996094 516.273438 395.519531 519.324219 392.304688 C 521.011719 390.527344 521.863281 388.554688 521.789062 386.601562 C 521.53125 379.859375 512.039062 375.269531 505.871094 375.191406 C 502.683594 375.183594 499.664062 376.359375 497.492188 378.589844 C 495.390625 380.742188 494.300781 383.609375 494.421875 386.65625 Z M 505.714844 376.613281 C 505.761719 376.613281 505.804688 376.613281 505.851562 376.613281 C 511.414062 376.679688 520.152344 381.023438 520.367188 386.65625 C 520.425781 388.238281 519.730469 389.808594 518.292969 391.324219 C 515.476562 394.292969 510.128906 396.578125 505.851562 396.644531 C 505.800781 396.644531 505.75 396.648438 505.699219 396.648438 C 500.292969 396.648438 496.066406 392.355469 495.84375 386.601562 C 495.738281 383.945312 496.6875 381.449219 498.511719 379.578125 C 500.375 377.660156 502.929688 376.613281 505.714844 376.613281 Z M 505.714844 376.613281 "/></g><g clip-rule="nonzero" clip-path="url(#c6ff994875)"><path style=" stroke:none;fill-rule:nonzero;fill:#ffffff;fill-opacity:1;" d="M 428.867188 299.964844 C 426.714844 298.976562 424.527344 297.96875 422.304688 296.925781 C 410.992188 291.613281 401.710938 279.554688 392.734375 267.898438 C 381.117188 252.808594 370.144531 238.554688 355.269531 238.335938 C 337.65625 238.046875 327.082031 255.746094 316.867188 272.832031 C 310.734375 283.082031 304.945312 292.765625 297.78125 298.808594 C 291.613281 304.011719 283.628906 308.210938 275.175781 312.660156 C 256.171875 322.660156 236.519531 333 236.507812 355.890625 C 236.492188 378.28125 256.269531 386.246094 275.394531 393.949219 C 285.101562 397.859375 294.273438 401.554688 300.839844 407 C 308.785156 413.585938 314.480469 425.4375 319.988281 436.902344 C 328.566406 454.753906 337.4375 473.21875 355.257812 473.339844 C 355.359375 473.339844 355.464844 473.339844 355.566406 473.339844 C 384.21875 473.339844 416.683594 446.691406 438.246094 428.988281 C 462.132812 409.378906 473.835938 385.46875 474.015625 355.894531 C 474.226562 320.835938 454.210938 311.625 428.867188 299.964844 Z M 437.289062 427.9375 C 415.9375 445.464844 383.710938 471.921875 355.566406 471.921875 C 355.46875 471.921875 355.367188 471.921875 355.265625 471.921875 C 338.335938 471.804688 329.660156 453.75 321.269531 436.285156 C 315.695312 424.6875 309.933594 412.691406 301.75 405.90625 C 295.015625 400.320312 285.742188 396.585938 275.925781 392.632812 C 257.238281 385.105469 237.914062 377.320312 237.929688 355.890625 C 237.941406 333.855469 257.207031 323.71875 275.835938 313.917969 C 284.363281 309.433594 292.414062 305.199219 298.695312 299.898438 C 306.042969 293.695312 312.164062 283.460938 318.085938 273.558594 C 328.023438 256.9375 338.296875 239.757812 354.898438 239.757812 C 355.015625 239.757812 355.132812 239.757812 355.25 239.761719 C 369.441406 239.96875 380.207031 253.957031 391.609375 268.765625 C 400.6875 280.558594 410.078125 292.753906 421.699219 298.210938 C 423.925781 299.257812 426.121094 300.265625 428.273438 301.257812 C 453.152344 312.703125 472.804688 321.742188 472.59375 355.886719 C 472.414062 385.011719 460.882812 408.566406 437.289062 427.9375 Z M 462.625 354.707031 C 461.289062 328.574219 443.320312 318.542969 422.511719 306.925781 C 420.089844 305.574219 417.636719 304.203125 415.167969 302.785156 C 408.570312 298.992188 401.5 292.617188 394.011719 285.875 C 381.03125 274.175781 367.609375 262.082031 354.957031 262.082031 C 354.835938 262.082031 354.710938 262.085938 354.589844 262.085938 C 340.238281 262.355469 327.113281 275.261719 314.421875 287.742188 C 308.890625 293.183594 303.660156 298.324219 298.613281 302.09375 C 293.996094 305.539062 288.628906 308.691406 282.945312 312.023438 C 266.140625 321.882812 247.09375 333.058594 246.578125 354.730469 C 246.113281 374.328125 265.25 382.667969 282.128906 390.027344 C 289.351562 393.171875 296.175781 396.148438 301.191406 399.78125 C 307.515625 404.359375 313.136719 411.554688 319.089844 419.171875 C 329.265625 432.195312 339.785156 445.660156 354.585938 446.046875 C 355.113281 446.0625 355.648438 446.070312 356.183594 446.070312 C 382.046875 446.070312 415.648438 430.003906 438.542969 406.550781 C 454.917969 389.769531 463.472656 371.359375 462.625 354.707031 Z M 437.523438 405.558594 C 414.414062 429.238281 380.371094 445.328125 354.621094 444.628906 C 340.492188 444.257812 330.179688 431.058594 320.210938 418.296875 C 314.195312 410.601562 308.511719 403.328125 302.023438 398.628906 C 296.882812 394.90625 289.992188 391.902344 282.699219 388.722656 C 265.421875 381.195312 247.558594 373.40625 248 354.761719 C 248.496094 333.882812 266.375 323.394531 283.664062 313.25 C 289.382812 309.894531 294.785156 306.726562 299.464844 303.234375 C 304.589844 299.40625 309.851562 294.234375 315.421875 288.757812 C 327.914062 276.472656 340.832031 263.765625 354.617188 263.507812 C 366.796875 263.261719 380.160156 275.300781 393.0625 286.929688 C 400.609375 293.726562 407.730469 300.148438 414.464844 304.019531 C 416.933594 305.4375 419.394531 306.8125 421.820312 308.167969 C 442.261719 319.578125 459.914062 329.429688 461.207031 354.78125 C 462.03125 371.03125 453.625 389.0625 437.523438 405.558594 Z M 410.832031 307.929688 L 408.222656 306.351562 C 404.886719 304.328125 401.152344 301.863281 397.199219 299.253906 C 383.269531 290.054688 365.984375 278.644531 353.460938 278.644531 C 353.277344 278.644531 353.101562 278.644531 352.921875 278.648438 C 336.585938 279.085938 316.480469 292.683594 300.324219 303.605469 L 299.355469 304.261719 C 296.710938 306.046875 293.828125 307.847656 290.773438 309.753906 C 275.113281 319.53125 255.621094 331.703125 255.648438 351.859375 C 255.675781 369.296875 272.9375 377.804688 288.167969 385.308594 C 292.988281 387.679688 297.535156 389.921875 301.195312 392.292969 C 305.949219 395.371094 310.679688 399.269531 315.691406 403.394531 C 327.355469 413.003906 339.414062 422.9375 352.679688 422.933594 C 352.769531 422.933594 352.859375 422.933594 352.949219 422.933594 C 378.492188 422.671875 418.222656 408.648438 437.875 386.449219 C 447.441406 375.640625 451.601562 363.972656 450.230469 351.777344 C 447.808594 330.261719 429.011719 318.910156 410.832031 307.929688 Z M 436.808594 385.507812 C 417.417969 407.417969 378.171875 421.257812 352.933594 421.511719 C 340.042969 421.621094 328.140625 411.808594 316.59375 402.296875 C 311.554688 398.148438 306.792969 394.226562 301.96875 391.101562 C 298.242188 388.683594 293.652344 386.425781 288.796875 384.03125 C 273.9375 376.710938 257.097656 368.414062 257.070312 351.855469 C 257.042969 332.488281 275.363281 321.050781 291.527344 310.957031 C 294.59375 309.046875 297.484375 307.238281 300.152344 305.4375 L 301.121094 304.785156 C 317.121094 293.960938 337.039062 280.496094 352.960938 280.070312 C 353.128906 280.066406 353.296875 280.066406 353.464844 280.066406 C 365.558594 280.066406 382.648438 291.347656 396.417969 300.441406 C 400.382812 303.058594 404.125 305.527344 407.484375 307.566406 L 410.097656 309.148438 C 427.980469 319.949219 446.476562 331.117188 448.816406 351.9375 C 450.140625 363.71875 446.101562 375.011719 436.808594 385.507812 Z M 350.539062 289.28125 C 334.941406 288.507812 297.261719 304.660156 277.113281 323.96875 C 268.304688 332.410156 263.875 340.367188 263.941406 347.617188 C 263.988281 352.835938 267.566406 358.894531 274.574219 365.628906 C 293.910156 384.199219 334.941406 403.453125 350.015625 403.453125 C 350.1875 403.453125 350.355469 403.453125 350.523438 403.449219 C 362.773438 403.074219 377.847656 400.398438 390.847656 396.296875 C 402.695312 392.554688 418.875 385.707031 428.652344 374.328125 C 435.433594 366.4375 438.261719 357.417969 437.054688 347.527344 C 433.8125 320.90625 371.109375 290.332031 350.539062 289.28125 Z M 302.664062 309.140625 C 303.832031 308.472656 305.039062 307.84375 306.28125 307.25 C 303.230469 310.71875 301.640625 314.910156 301.578125 319.746094 C 301.515625 324.917969 303.21875 329.28125 306.640625 332.71875 C 314.480469 340.589844 329.132812 341.292969 334.082031 341.292969 C 334.226562 341.292969 334.363281 341.292969 334.488281 341.292969 C 343.945312 341.214844 356.578125 339.660156 363.089844 332.6875 C 366.257812 329.292969 367.703125 324.929688 367.386719 319.710938 C 366.820312 310.410156 360.738281 304.6875 353.414062 301.351562 C 364.867188 304.304688 377.722656 310.785156 379.667969 325.003906 C 380.441406 330.640625 379.285156 335.332031 376.234375 338.957031 C 368.367188 348.308594 349.371094 348.992188 339.164062 349.363281 L 337.421875 349.425781 C 325.238281 349.902344 309.289062 346.863281 301.144531 338.988281 C 297.191406 335.164062 295.203125 330.429688 295.234375 324.914062 C 295.269531 319.039062 297.53125 313.941406 301.957031 309.757812 C 302.183594 309.546875 302.429688 309.347656 302.664062 309.140625 Z M 317.503906 303.085938 C 322.683594 301.609375 327.902344 300.632812 332.605469 300.085938 C 346.386719 300.679688 352.644531 305.472656 352.839844 315.601562 C 353.070312 327.402344 343.542969 329.40625 332.011719 330.664062 C 324.804688 331.453125 319.097656 330.140625 315.515625 326.867188 C 312.652344 324.257812 311.25 320.46875 311.335938 315.601562 C 311.425781 310.855469 312.839844 307.148438 315.546875 304.582031 C 316.128906 304.027344 316.796875 303.539062 317.503906 303.085938 Z M 365.96875 319.800781 C 366.261719 324.613281 364.941406 328.625 362.050781 331.71875 C 355.886719 338.320312 343.652344 339.796875 334.480469 339.875 C 330.125 339.917969 315.328125 339.425781 307.648438 331.71875 C 304.507812 328.5625 302.941406 324.539062 303 319.765625 C 303.0625 314.757812 304.871094 310.492188 308.375 307.09375 C 308.9375 306.546875 309.542969 306.042969 310.167969 305.558594 C 311.421875 305.0625 312.695312 304.601562 313.984375 304.167969 C 311.382812 306.96875 310.003906 310.789062 309.917969 315.578125 C 309.820312 320.867188 311.382812 325.015625 314.554688 327.914062 C 317.734375 330.816406 322.371094 332.308594 328.109375 332.308594 C 329.40625 332.308594 330.761719 332.230469 332.167969 332.078125 C 343.953125 330.789062 354.515625 328.554688 354.261719 315.578125 C 354.058594 305.054688 347.429688 301.070312 340.234375 299.542969 C 340.40625 299.539062 340.59375 299.53125 340.765625 299.527344 C 340.902344 299.527344 341.042969 299.527344 341.1875 299.527344 C 341.6875 299.527344 342.214844 299.539062 342.761719 299.558594 C 353.292969 301.5 365.199219 307.113281 365.96875 319.800781 Z M 293.8125 324.90625 C 293.777344 330.824219 295.914062 335.910156 300.15625 340.011719 C 308.527344 348.101562 323.515625 350.894531 334.882812 350.894531 C 335.769531 350.894531 336.636719 350.878906 337.476562 350.847656 L 339.214844 350.78125 C 349.640625 350.40625 369.046875 349.707031 377.324219 339.875 C 380.640625 335.929688 381.90625 330.863281 381.078125 324.8125 C 379.652344 314.414062 372.773438 307.972656 364.734375 303.976562 C 367.402344 304.914062 370.109375 306.011719 372.785156 307.308594 C 381.617188 311.585938 392.417969 319.125 393.707031 330.742188 C 394.433594 337.316406 392.789062 342.871094 388.816406 347.253906 C 379.019531 358.054688 357.285156 360.09375 340.765625 359.871094 C 325.996094 359.6875 287.699219 354.082031 287.808594 330.667969 C 287.84375 322.960938 291.855469 316.957031 297.800781 312.363281 C 295.183594 316.042969 293.839844 320.242188 293.8125 324.90625 Z M 295.320312 312.476562 C 289.480469 317.5625 286.421875 323.703125 286.390625 330.660156 C 286.339844 341.390625 293.863281 349.933594 308.148438 355.359375 C 319.238281 359.578125 332.640625 361.191406 340.746094 361.292969 C 341.464844 361.300781 342.1875 361.304688 342.921875 361.304688 C 359.417969 361.304688 380.148438 358.921875 389.867188 348.207031 C 394.128906 343.511719 395.894531 337.582031 395.117188 330.585938 C 393.777344 318.476562 382.496094 309.726562 369.71875 304.378906 C 373.792969 305.804688 377.96875 307.523438 382.09375 309.578125 C 397.453125 317.226562 406.605469 326.863281 407.863281 336.714844 C 408.804688 344.050781 406.996094 350.359375 402.488281 355.46875 C 389.464844 370.234375 357.390625 371.828125 344.183594 371.753906 C 327.175781 371.726562 280.488281 363.347656 280.503906 336.625 C 280.507812 329.519531 283.296875 323.148438 288.785156 317.6875 C 290.710938 315.78125 292.925781 314.058594 295.320312 312.476562 Z M 282.675781 321.910156 C 283.5 321.082031 284.378906 320.28125 285.28125 319.496094 C 281.191406 324.578125 279.09375 330.316406 279.089844 336.625 C 279.078125 348.785156 288.148438 358.792969 305.320312 365.558594 C 320.519531 371.546875 336.898438 373.164062 344.183594 373.175781 C 344.273438 373.175781 344.359375 373.175781 344.453125 373.175781 C 358 373.175781 390.242188 371.507812 403.554688 356.410156 C 408.34375 350.980469 410.269531 344.292969 409.277344 336.535156 C 406.210938 312.585938 362.5625 297.847656 344.1875 297.757812 C 344.09375 297.757812 343.996094 297.757812 343.902344 297.757812 C 343.050781 297.757812 342.152344 297.777344 341.214844 297.816406 C 340.847656 297.777344 340.496094 297.746094 340.152344 297.71875 C 339.429688 297.625 338.722656 297.546875 338.027344 297.484375 C 341.660156 296.933594 344.875 296.65625 347.445312 296.65625 C 347.464844 296.65625 347.488281 296.65625 347.507812 296.65625 C 368.976562 296.691406 418.878906 319.730469 421.921875 342.503906 C 423.003906 350.589844 420.820312 357.800781 415.429688 363.933594 C 400.210938 381.242188 364.34375 385.703125 347.511719 385.625 C 338.546875 385.59375 320.070312 381.425781 303.484375 373.777344 C 292.15625 368.550781 273.140625 357.527344 273.101562 342.40625 C 273.082031 335.179688 276.300781 328.285156 282.675781 321.910156 Z M 427.574219 373.402344 C 418.015625 384.527344 402.09375 391.257812 390.421875 394.941406 C 377.539062 399.011719 362.605469 401.660156 350.480469 402.027344 C 336.367188 402.433594 294.523438 382.820312 275.5625 364.605469 C 268.839844 358.148438 265.40625 352.429688 265.363281 347.605469 C 265.300781 340.863281 269.699219 333.050781 278.082031 325.011719 C 273.839844 330.5 271.664062 336.328125 271.679688 342.40625 C 271.75 369.328125 328.042969 386.96875 347.507812 387.042969 C 347.628906 387.042969 347.75 387.042969 347.875 387.042969 C 365.085938 387.042969 401.050781 382.433594 416.496094 364.863281 C 422.171875 358.410156 424.46875 350.824219 423.332031 342.308594 C 420.039062 317.679688 366.988281 295.265625 347.511719 295.230469 C 347.488281 295.230469 347.46875 295.230469 347.449219 295.230469 C 343.28125 295.230469 337.464844 295.949219 330.890625 297.371094 C 327.101562 297.589844 322.984375 298.257812 319.058594 299.503906 C 318.074219 299.761719 317.09375 300.039062 316.125 300.347656 C 329.128906 294.386719 341.597656 290.667969 349.347656 290.667969 C 349.734375 290.667969 350.105469 290.679688 350.46875 290.699219 C 370.734375 291.734375 432.476562 321.660156 435.648438 347.695312 C 436.800781 357.175781 434.085938 365.824219 427.574219 373.402344 Z M 329.628906 322.691406 C 329.925781 322.691406 330.226562 322.683594 330.53125 322.664062 C 337.855469 322.242188 342.011719 318.644531 341.929688 312.792969 C 341.84375 306.769531 337.355469 302.851562 330.492188 302.8125 C 330.457031 302.8125 330.425781 302.8125 330.390625 302.8125 C 323.574219 302.8125 319.128906 306.722656 319.046875 312.792969 C 319.007812 315.664062 319.964844 318.113281 321.808594 319.878906 C 323.722656 321.707031 326.472656 322.691406 329.628906 322.691406 Z M 330.398438 304.234375 C 330.425781 304.234375 330.457031 304.234375 330.484375 304.234375 C 335.273438 304.261719 340.421875 306.53125 340.507812 312.8125 C 340.605469 319.640625 334.246094 321.027344 330.445312 321.25 C 327.316406 321.425781 324.597656 320.578125 322.792969 318.851562 C 321.238281 317.367188 320.433594 315.28125 320.464844 312.8125 C 320.550781 306.484375 325.636719 304.234375 330.398438 304.234375 Z M 330.398438 304.234375 "/></g></g></svg>