<svg xmlns="http://www.w3.org/2000/svg" xmlns:xlink="http://www.w3.org/1999/xlink" width="69" zoomAndPan="magnify" viewBox="0 0 51.75 32.999998" height="44" preserveAspectRatio="xMidYMid meet" version="1.2"><defs><clipPath id="b26f70288e"><path d="M 0.0078125 0.078125 L 32.847656 0.078125 L 32.847656 32.917969 L 0.0078125 32.917969 Z M 0.0078125 0.078125 "/></clipPath></defs><g id="d89478c572"><g style="fill:#ffffff;fill-opacity:1;"><g transform="translate(29.372311, 19.031209)"><path style="stroke:none" d=""/></g></g><g style="fill:#ffffff;fill-opacity:1;"><g transform="translate(32.331822, 19.031209)"><path style="stroke:none" d="M 4.828125 0 L 5.40625 0 L 5.40625 -5.21875 L 4.828125 -5.21875 L 4.828125 -2.71875 L 1.9375 -2.71875 L 1.9375 -2.203125 L 4.828125 -2.203125 Z M 0.578125 0 L 1.171875 0 L 1.171875 -5.21875 L 0.578125 -5.21875 Z M 0.578125 0 "/></g></g><g style="fill:#ffffff;fill-opacity:1;"><g transform="translate(38.319378, 19.031209)"><path style="stroke:none" d=""/></g></g><g style="fill:#ffffff;fill-opacity:1;"><g transform="translate(41.275579, 19.031209)"><path style="stroke:none" d="M 0.5625 -5.21875 L 0.5625 -4.6875 L 2.5 -4.6875 L 2.5 0 L 3.078125 0 L 3.078125 -4.6875 L 5.03125 -4.6875 L 5.03125 -5.21875 Z M 0.5625 -5.21875 "/></g></g><g clip-rule="nonzero" clip-path="url(#b26f70288e)"><path style=" stroke:none;fill-rule:nonzero;fill:#ffffff;fill-opacity:1;" d="M 16.527344 32.625 C 18.652344 32.59375 20.765625 32.144531 22.707031 31.308594 C 24.648438 30.472656 26.429688 29.265625 27.90625 27.765625 C 29.386719 26.265625 30.578125 24.476562 31.375 22.535156 C 32.179688 20.59375 32.589844 18.488281 32.589844 16.386719 C 32.589844 18.488281 32.171875 20.59375 31.367188 22.535156 C 30.5625 24.476562 29.355469 26.257812 27.859375 27.726562 C 26.367188 29.207031 24.582031 30.375 22.636719 31.15625 C 20.695312 31.9375 18.597656 32.316406 16.519531 32.285156 C 14.4375 32.253906 12.371094 31.804688 10.46875 30.984375 C 8.570312 30.164062 6.839844 28.964844 5.40625 27.496094 C 3.96875 26.027344 2.824219 24.277344 2.058594 22.375 C 1.285156 20.476562 0.890625 18.429688 0.890625 16.386719 C 0.890625 14.335938 1.285156 12.292969 2.058594 10.398438 C 2.832031 8.5 3.976562 6.753906 5.40625 5.28125 C 6.847656 3.8125 8.570312 2.613281 10.46875 1.792969 C 12.378906 0.957031 14.445312 0.515625 16.527344 0.484375 C 18.605469 0.453125 20.703125 0.832031 22.644531 1.613281 C 24.585938 2.390625 26.375 3.566406 27.875 5.042969 C 29.371094 6.519531 30.570312 8.292969 31.382812 10.234375 C 32.195312 12.175781 32.605469 14.28125 32.605469 16.386719 C 32.605469 14.28125 32.195312 12.175781 31.390625 10.234375 C 30.585938 8.285156 29.398438 6.503906 27.921875 5.003906 C 26.445312 3.503906 24.664062 2.289062 22.722656 1.460938 C 20.765625 0.609375 18.652344 0.167969 16.527344 0.128906 C 14.398438 0.0976562 12.253906 0.476562 10.265625 1.273438 C 8.277344 2.0625 6.4375 3.253906 4.898438 4.757812 C 3.355469 6.257812 2.121094 8.074219 1.277344 10.0625 C 0.441406 12.050781 0.0078125 14.21875 0.0078125 16.378906 C 0.0078125 18.535156 0.441406 20.703125 1.285156 22.691406 C 2.121094 24.679688 3.363281 26.496094 4.90625 28 C 6.445312 29.5 8.277344 30.691406 10.273438 31.480469 C 12.253906 32.277344 14.398438 32.65625 16.527344 32.625 Z M 16.527344 32.625 "/></g><path style="fill:none;stroke-width:1;stroke-linecap:butt;stroke-linejoin:miter;stroke:#ffffff;stroke-opacity:1;stroke-miterlimit:4;" d="M 0.000832755 0.498037 L 26.354701 0.50182 " transform="matrix(0.736522,0.0139755,-0.0139755,0.736522,0.0141595,15.637079)"/></g></svg>