<?xml version="1.0" encoding="utf-8" ?>
<svg baseProfile="full" height="600px" version="1.1" width="600px" xmlns="http://www.w3.org/2000/svg" xmlns:ev="http://www.w3.org/2001/xml-events" xmlns:xlink="http://www.w3.org/1999/xlink"><defs /><path d="M200,150 C180,90 420,90 400,150 C420,180 420,320 400,350 C420,410 180,410 200,350 C180,320 180,180 200,150 Z" fill="none" opacity="0.8" stroke="#ff66cc" stroke-width="2" /><circle cx="426.0" cy="300.0" fill="#cc66ff" opacity="0.9" r="4" /><circle cx="418.40127021902447" cy="330.7818128993102" fill="#cc66ff" opacity="0.9" r="4" /><circle cx="396.5215998329912" cy="357.85088487178854" fill="#cc66ff" opacity="0.9" r="4" /><circle cx="363.0" cy="377.9422863405995" fill="#cc66ff" opacity="0.9" r="4" /><circle cx="321.87967038603324" cy="388.6326977710987" fill="#cc66ff" opacity="0.9" r="4" /><circle cx="278.12032961396676" cy="388.6326977710987" fill="#cc66ff" opacity="0.9" r="4" /><circle cx="237.00000000000003" cy="377.9422863405995" fill="#cc66ff" opacity="0.9" r="4" /><circle cx="203.4784001670088" cy="357.85088487178854" fill="#cc66ff" opacity="0.9" r="4" /><circle cx="181.59872978097556" cy="330.7818128993102" fill="#cc66ff" opacity="0.9" r="4" /><circle cx="174.0" cy="300.0" fill="#cc66ff" opacity="0.9" r="4" /><circle cx="181.59872978097553" cy="269.2181871006898" fill="#cc66ff" opacity="0.9" r="4" /><circle cx="203.47840016700877" cy="242.14911512821146" fill="#cc66ff" opacity="0.9" r="4" /><circle cx="236.99999999999994" cy="222.05771365940055" fill="#cc66ff" opacity="0.9" r="4" /><circle cx="278.12032961396676" cy="211.36730222890128" fill="#cc66ff" opacity="0.9" r="4" /><circle cx="321.8796703860332" cy="211.36730222890128" fill="#cc66ff" opacity="0.9" r="4" /><circle cx="363.0" cy="222.05771365940052" fill="#cc66ff" opacity="0.9" r="4" /><circle cx="396.52159983299117" cy="242.14911512821143" fill="#cc66ff" opacity="0.9" r="4" /><circle cx="418.40127021902447" cy="269.2181871006898" fill="#cc66ff" opacity="0.9" r="4" /><line opacity="0.7" stroke="#cc66ff" stroke-width="1.2" x1="426.0" x2="300.0" y1="300.0" y2="390.0" /><line opacity="0.7" stroke="#cc66ff" stroke-width="1.2" x1="300.0" x2="174.0" y1="390.0" y2="300.0" /><line opacity="0.7" stroke="#cc66ff" stroke-width="1.2" x1="174.0" x2="300.0" y1="300.0" y2="210.0" /><line opacity="0.7" stroke="#cc66ff" stroke-width="1.2" x1="300.0" x2="426.0" y1="210.0" y2="300.0" /><line opacity="0.7" stroke="#cc66ff" stroke-width="1.2" x1="389.09545442950497" x2="210.90454557049503" y1="363.6396103067893" y2="363.6396103067893" /><line opacity="0.7" stroke="#cc66ff" stroke-width="1.2" x1="210.90454557049503" x2="210.904545570495" y1="363.6396103067893" y2="236.36038969321072" /><line opacity="0.7" stroke="#cc66ff" stroke-width="1.2" x1="210.904545570495" x2="389.09545442950497" y1="236.36038969321072" y2="236.36038969321072" /><line opacity="0.7" stroke="#cc66ff" stroke-width="1.2" x1="389.09545442950497" x2="389.09545442950497" y1="236.36038969321072" y2="363.6396103067893" /></svg>